<?xml version='1.0' encoding='utf-8'?>
<!-- Generator: imaengine 6.0   -->
<svg xmlns:xlink="http://www.w3.org/1999/xlink" xmlns="http://www.w3.org/2000/svg" viewBox="0,0,78,78" style="enable-background:new 0 0 78 78;" version="1.1">
<defs/>
<g id="layer0">
<path d="M70.6,39.73C69.2393,39.1986 68.1073,38.2081 67.4,36.93C66.376,35.012 64.3742,33.8186 62.2,33.83L61.9,33.83C56.2146,34.0893 51.2702,29.969 50.5,24.33C50.412,23.8689 50.3784,23.399 50.4,22.93C50.3777,21.9482 50.5127,20.9691 50.8,20.03C50.9163,19.5041 50.9833,18.9684 51,18.43C51.0595,16.7812 50.3592,15.1962 49.1,14.13C47.5115,12.7437 46.6,10.7383 46.6,8.63C46.6059,6.62487 45.0941,4.94025 43.1,4.73C38.0501,4.1796 32.9409,4.69052 28.1,6.23C17.3594,9.55746 9.03863,18.1041 6,28.93C5.008,32.2393 4.50271,35.6753 4.5,39.13C4.4704,45.3239 6.12989,51.4087 9.3,56.73C9.31957,56.7721 9.343,56.8123 9.37,56.85C9.48,57.02 10.59,58.24 12.05,59.85C11.69,60.32 17.23,66.01 17.7,66.37C27.3674,73.9671 40.3389,75.8668 51.7788,71.3608C63.2187,66.8548 71.4104,56.6193 73.3,44.47C73.6138,42.454 72.4941,40.4883 70.6,39.73L70.6,39.73Z" stroke="#EE3308" stroke-width="7" fill="#FFFFFF"/>
<path d="M71,44.13C69.2428,55.4987 61.5839,65.0807 50.8819,69.2998C40.1798,73.5189 28.0425,71.7411 19,64.63L17,63.07C14.5,59.79 11.38,55.92 11.19,55.63C8.22081,50.6401 6.66525,44.9364 6.69,39.13C6.69948,35.8798 7.17086,32.6475 8.09001,29.53C10.8776,19.4159 18.6585,11.4387 28.7,8.40001C33.2465,6.93365 38.0539,6.45631 42.8,7.00001C43.7086,7.11509 44.3923,7.88416 44.4,8.80001C44.4125,11.5346 45.6177,14.1275 47.7,15.9C48.4678,16.5443 48.9078,17.4977 48.9,18.5C48.9168,18.8365 48.8831,19.1735 48.8,19.5C48.4796,20.6053 48.3114,21.7492 48.3,22.9C48.2832,23.4685 48.3166,24.0374 48.4,24.6C49.0865,30.222 53.3339,34.7526 58.9,35.8C59.9244,35.9667 60.9626,36.0337 62,36C63.4509,35.9515 64.8052,36.7253 65.5,38C66.4732,39.6418 67.8959,40.9707 69.6,41.83C70.4666,42.1015 71.0415,42.9228 71,43.83L71,44.13Z" fill="#FFFFFF"/>
<g transform="translate(2,2)">
<path d="M26.6,31.43C23.6216,31.43 21.2056,29.0184 21.2001,26.0399C21.1946,23.0615 23.6017,20.6411 26.5801,20.63C29.5585,20.619 31.9835,23.0216 32,26C32.0277,28.9713 29.6413,31.4025 26.67,31.43L26.6,31.43Z" fill="#FFA472"/>
<path d="M25.2,53.13C22.2177,53.13 19.8,50.7123 19.8,47.73C19.8,44.7477 22.2177,42.33 25.2,42.33C28.1823,42.33 30.6,44.7477 30.6,47.73C30.5782,50.7033 28.1733,53.1082 25.2,53.13L25.2,53.13Z" fill="#FFA472"/>
<path d="M47.9,52.33C44.9177,52.33 42.5,49.9123 42.5,46.93C42.5,43.9477 44.9177,41.53 47.9,41.53C50.8823,41.53 53.3,43.9477 53.3,46.93C53.3445,49.8683 50.9983,52.2861 48.06,52.33L47.9,52.33Z" fill="#FFA472"/>
</g>
</g>
</svg>
